Coordinates
version=1
nRows=20
nColumns=38
inDegrees=no

Units are S.I. units (second, meters, Newtons, ...)
If the header above contains a line with 'inDegrees', this indicates whether rotational values are in degrees (yes) or radians (no).

endheader
time	pelvis_tilt	pelvis_list	pelvis_rotation	pelvis_tx	pelvis_ty	pelvis_tz	hip_flexion_r	hip_adduction_r	hip_rotation_r	knee_angle_r	ankle_angle_r	subtalar_angle_r	mtp_angle_r	hip_flexion_l	hip_adduction_l	hip_rotation_l	knee_angle_l	ankle_angle_l	subtalar_angle_l	mtp_angle_l	lumbar_extension	lumbar_bending	lumbar_rotation	arm_flex_r	arm_add_r	arm_rot_r	elbow_flex_r	pro_sup_r	wrist_flex_r	wrist_dev_r	arm_flex_l	arm_add_l	arm_rot_l	elbow_flex_l	pro_sup_l	wrist_flex_l	wrist_dev_l
0.46	1.41544	1.46024	-3.10591	0.769732	0.948557	0.920906	0.108172	-0.158456	0.0737497	1.12782	-0.276371	0	0	0.507184	0.0960564	-0.313522	0.614359	0.159104	0	0	-0.0601773	-0.102494	-0.0287667	-0.0539018	-0.0438769	-0.232192	0.215459	1.4777	0	0	-0.188716	-0.48653	1.018	0.90823	0.678507	0	0
0.47	1.29039	1.46474	-2.97784	0.77115	0.936602	0.924066	0.126533	-0.152843	0.0774226	1.18153	-0.2983	0	0	0.47642	0.0953979	-0.310257	0.609083	0.158074	0	0	-0.0739352	-0.0945346	-0.0317278	-0.0490657	-0.0491261	-0.231377	0.217897	1.47859	0	0	-0.186768	-0.477223	1.00274	0.891966	0.683529	0	0
0.48	1.35512	1.44823	-3.03432	0.771624	0.92401	0.923223	0.170123	-0.1905	0.053676	1.22618	-0.318633	0	0	0.468855	0.118597	-0.3085	0.609746	0.160522	0	0	-0.0632599	-0.11689	-0.0419555	-0.0519198	-0.0457913	-0.229003	0.223171	1.48171	0	0	-0.201432	-0.486057	0.971897	0.90117	0.695736	0	0
0.49	1.31781	1.45718	-2.99862	0.771989	0.913538	0.925638	0.210609	-0.137869	0.115238	1.2941	-0.276382	0	0	0.453481	0.111549	-0.301921	0.611319	0.163711	0	0	-0.0669417	-0.106308	-0.0401183	-0.0472817	-0.0503943	-0.228554	0.227629	1.48346	0	0	-0.200808	-0.473512	0.942356	0.877538	0.706864	0	0
0.5	1.3129	1.45519	-2.99079	0.772447	0.902541	0.927124	0.259656	-0.128856	0.129877	1.33494	-0.286215	0	0	0.439336	0.119011	-0.293562	0.610586	0.169786	0	0	-0.0661566	-0.109353	-0.0433552	-0.0455295	-0.0519906	-0.228364	0.232814	1.48538	0	0	-0.204459	-0.468172	0.911522	0.864309	0.70841	0	0
0.51	1.26663	1.45392	-2.93882	0.773057	0.891395	0.929453	0.285117	-0.120721	0.136104	1.36328	-0.256598	0	0	0.416954	0.126617	-0.282708	0.605157	0.177071	0	0	-0.0709573	-0.110335	-0.0492082	-0.0434667	-0.053888	-0.229076	0.237427	1.48871	0	0	-0.206453	-0.461123	0.880116	0.847978	0.705112	0	0
0.52	1.21851	1.45283	-2.88468	0.773692	0.880432	0.932018	0.309093	-0.112535	0.140806	1.38395	-0.233798	0	0	0.392131	0.133677	-0.272698	0.595675	0.183687	0	0	-0.0765583	-0.110541	-0.0545361	-0.0410021	-0.0557891	-0.23118	0.241054	1.49152	0	0	-0.205784	-0.453996	0.852404	0.831331	0.694229	0	0
0.53	1.16937	1.45217	-2.82897	0.774349	0.869548	0.934732	0.331913	-0.104297	0.14391	1.39794	-0.216994	0	0	0.365187	0.139568	-0.263994	0.582384	0.189553	0	0	-0.0823316	-0.109676	-0.059844	-0.0377427	-0.0577274	-0.233474	0.242375	1.49447	0	0	-0.203597	-0.446898	0.826872	0.815111	0.676481	0	0
0.54	1.14493	1.45112	-2.7993	0.775287	0.858986	0.937281	0.378008	-0.10373	0.127172	1.40347	-0.275697	0	0	0.339861	0.146398	-0.257902	0.565177	0.193299	0	0	-0.0856379	-0.10915	-0.0628392	-0.0340412	-0.0606256	-0.234533	0.241611	1.49713	0	0	-0.19865	-0.440021	0.807252	0.799788	0.657099	0	0
0.55	1.06708	1.45112	-2.71276	0.775689	0.847951	0.940376	0.373723	-0.0895106	0.146447	1.40766	-0.190352	0	0	0.306115	0.147974	-0.252691	0.546219	0.19792	0	0	-0.0945852	-0.105619	-0.0694503	-0.0298704	-0.0618779	-0.235701	0.236882	1.50438	0	0	-0.195061	-0.434524	0.782468	0.788408	0.62431	0	0
0.56	1.01379	1.45095	-2.65225	0.776403	0.837259	0.943202	0.392195	-0.0829483	0.145493	1.40363	-0.176983	0	0	0.275833	0.150323	-0.248435	0.526443	0.201226	0	0	-0.101012	-0.10207	-0.0735345	-0.0260033	-0.0638722	-0.241186	0.233432	1.50915	0	0	-0.189025	-0.429528	0.761829	0.779945	0.597491	0	0
0.57	0.958085	1.45073	-2.58928	0.777154	0.826612	0.94599	0.408727	-0.0771006	0.143291	1.39418	-0.162112	0	0	0.245199	0.151889	-0.243137	0.506146	0.20356	0	0	-0.10776	-0.0977311	-0.0773041	-0.022307	-0.0659305	-0.249721	0.230891	1.51057	0	0	-0.182133	-0.425396	0.745083	0.771998	0.57494	0	0
0.58	0.915733	1.45116	-2.53894	0.778178	0.816092	0.948485	0.43529	-0.0757404	0.122239	1.3789	-0.179994	0	0	0.217216	0.15412	-0.234942	0.48593	0.20467	0	0	-0.112676	-0.0928419	-0.081762	-0.01924	-0.0688244	-0.254341	0.228199	1.51083	0	0	-0.174656	-0.421891	0.733127	0.763528	0.559974	0	0
0.59	0.881403	1.45781	-2.50027	0.778857	0.80646	0.950591	0.4661	-0.064605	0.135585	1.38744	-0.136142	0	0	0.19794	0.149579	-0.228278	0.470525	0.205928	0	0	-0.114186	-0.0829662	-0.0822257	-0.0141301	-0.0724328	-0.260312	0.223794	1.51359	0	0	-0.165279	-0.416374	0.717199	0.75422	0.543363	0	0
0.6	0.843011	1.46021	-2.45242	0.779687	0.796046	0.952505	0.481508	-0.0613527	0.126828	1.36563	-0.11122	0	0	0.174697	0.148891	-0.217568	0.455035	0.207949	0	0	-0.116899	-0.0771107	-0.0885507	-0.0108325	-0.0746463	-0.26703	0.220521	1.51513	0	0	-0.159405	-0.415694	0.70104	0.753472	0.53534	0	0
0.61	0.811728	1.46245	-2.41125	0.780481	0.78561	0.954175	0.49502	-0.0604028	0.11558	1.33955	-0.0816306	0	0	0.15234	0.148254	-0.207147	0.439798	0.21101	0	0	-0.118567	-0.0722104	-0.0954674	-0.00790732	-0.0767554	-0.270927	0.216949	1.51575	0	0	-0.15352	-0.416203	0.686158	0.753821	0.534665	0	0
0.62	0.793499	1.46381	-2.38275	0.781596	0.775313	0.955678	0.51683	-0.067398	0.0861914	1.30295	-0.0918846	0	0	0.130307	0.149762	-0.195124	0.423403	0.213645	0	0	-0.12001	-0.0685976	-0.10239	-0.00536667	-0.0793548	-0.271955	0.213442	1.51519	0	0	-0.145808	-0.416865	0.675421	0.753155	0.53839	0	0
0.63	0.739675	1.46486	-2.31811	0.783249	0.76485	0.957011	0.519114	-0.0804786	0.0875417	1.27259	-0.0252698	0	0	0.105698	0.151308	-0.180318	0.408499	0.215545	0	0	-0.124141	-0.0616596	-0.110815	-0.00282958	-0.0821063	-0.272151	0.209896	1.51378	0	0	-0.139176	-0.41954	0.667276	0.756798	0.546449	0	0
0.64	0.727749	1.46538	-2.29569	0.784099	0.75444	0.957989	0.528019	-0.0878958	0.0735498	1.23344	-0.0054724	0	0	0.0839874	0.152358	-0.169879	0.393234	0.218849	0	0	-0.125248	-0.0599108	-0.117591	-0.00171089	-0.0831936	-0.274197	0.208878	1.50765	0	0	-0.130948	-0.423839	0.663313	0.758715	0.556591	0	0
0.65	0.727466	1.46611	-2.28613	0.784753	0.744091	0.958642	0.53683	-0.0954429	0.0608588	1.19152	0.00921701	0	0	0.0640855	0.15364	-0.160615	0.378885	0.222371	0	0	-0.125238	-0.0593307	-0.123026	-0.000848	-0.0838908	-0.274733	0.207953	1.50024	0	0	-0.121818	-0.428456	0.662072	0.759715	0.571247	0	0
